<svg width="32" height="32" viewBox="0 0 32 32" fill="none" xmlns="http://www.w3.org/2000/svg">
<path d="M27.8311 16.6926C27.808 16.4864 27.7802 16.2802 27.7478 16.074C27.4712 14.3879 26.952 12.9887 26.1905 11.8763C25.3251 10.6208 24.218 9.86737 22.8681 9.61605C22.0375 9.47236 20.895 9.59829 19.4407 9.99276C18.1948 10.3517 17.1391 10.7822 16.2737 11.2844C15.4083 10.7822 14.3526 10.3517 13.1067 9.99276C11.6529 9.59829 10.511 9.47236 9.68037 9.61605C8.33052 9.86737 7.2234 10.6208 6.35797 11.8763C5.5965 12.9887 5.07724 14.3879 4.80072 16.074C4.55799 17.6169 4.57618 19.1593 4.8527 20.7022C4.85369 20.7083 4.85469 20.7144 4.85569 20.7205C5.15924 21.0518 5.5163 21.3468 5.92492 21.6001C8.67396 23.3038 10.6934 21.8602 13.2407 20.0003L17.0947 17.1844C19.5285 15.3657 22.9528 13.5103 26.6931 15.8284C27.1081 16.0856 27.4876 16.375 27.8311 16.6926Z" fill="#FF8C19"/>
<path d="M6.88767 24.8981L6.88644 24.8962C6.83745 24.8226 6.76929 24.6639 6.68848 24.4139C6.61138 24.1753 6.53467 23.8927 6.4571 23.598C6.44063 23.5354 6.42409 23.4721 6.40752 23.4088C6.36308 23.2388 6.31842 23.0679 6.27421 22.9067C6.29978 22.9154 6.32522 22.924 6.35054 22.9326C6.74568 23.0665 7.11041 23.1901 7.44002 23.2818C8.02902 23.4457 8.59103 23.5363 9.2211 23.4614C10.4583 23.3143 11.8615 22.5375 14.2521 20.7449L17.434 18.479L17.4457 18.4706L17.4569 18.4614C18.5372 17.5759 19.8832 16.5473 21.3471 16.0042C22.7913 15.4684 24.3195 15.4142 25.8302 16.4333L25.8302 16.4333C26.5379 16.9105 26.9622 17.3924 27.2171 17.9484C27.4703 18.5008 27.5742 19.1647 27.5731 20.0442C27.0809 21.9044 26.3749 23.5199 25.4598 24.8962L25.4586 24.8981C23.9115 27.2515 22.0157 28.3732 19.7612 28.3732C19.2665 28.3732 18.6928 28.1997 18.0293 27.808C17.4745 27.4269 16.8522 27.235 16.1731 27.235C15.4938 27.235 14.8722 27.427 14.317 27.8079C13.6535 28.1997 13.0797 28.3732 12.5851 28.3732C10.3306 28.3732 8.43471 27.2515 6.88767 24.8981Z" stroke="url(#paint0_linear_432_1489)" stroke-width="0.853982"/>
<circle cx="18.0313" cy="22.6919" r="1.90773" fill="url(#paint1_linear_432_1489)"/>
<path d="M24.2317 24.3607C24.2317 25.1509 23.5911 25.7915 22.8009 25.7915C22.0107 25.7915 21.3701 25.1509 21.3701 24.3607C21.3701 23.5705 22.0107 22.9299 22.8009 22.9299C23.5911 22.9299 24.2317 23.5705 24.2317 24.3607Z" fill="url(#paint2_linear_432_1489)"/>
<path d="M26.3779 20.3068C26.3779 21.097 25.7373 21.7376 24.9471 21.7376C24.1569 21.7376 23.5163 21.097 23.5163 20.3068C23.5163 19.5166 24.1569 18.876 24.9471 18.876C25.7373 18.876 26.3779 19.5166 26.3779 20.3068Z" fill="url(#paint3_linear_432_1489)"/>
<circle cx="21.7539" cy="18.5535" r="0.953865" fill="url(#paint4_linear_432_1489)"/>
<circle cx="21.3691" cy="21.738" r="0.953865" fill="url(#paint5_linear_432_1489)"/>
<circle cx="14.6928" cy="24.6007" r="1.4308" fill="url(#paint6_linear_432_1489)"/>
<circle cx="11.3538" cy="25.5535" r="0.953865" fill="url(#paint7_linear_432_1489)"/>
<circle cx="19.4617" cy="26.03" r="0.953865" fill="url(#paint8_linear_432_1489)"/>
<path d="M21.6599 7.8707C21.9428 7.9894 22.2246 8.08235 22.5064 8.14762C22.3883 8.21738 22.265 8.28534 22.1364 8.35146L22.1364 8.35131L22.1257 8.35717C21.6158 8.638 21.0434 8.84048 20.405 8.9617C19.7397 9.088 19.1146 9.17352 18.5291 9.219L18.5291 9.2189L18.5197 9.21983C18.0284 9.2689 17.5371 9.29449 17.0459 9.29663C17.1791 8.93981 17.3335 8.58217 17.5095 8.22371C17.6974 7.87444 17.936 7.50305 18.2273 7.10938C18.5242 6.96411 18.7733 6.90222 19.0165 6.89973C19.286 6.89697 19.5849 6.96669 19.9722 7.13524C19.9723 7.13525 19.9723 7.13526 19.9723 7.13528C19.9723 7.13529 19.9724 7.13531 19.9724 7.13533L21.6544 7.86839L21.6544 7.86842L21.6599 7.8707Z" stroke="#FF8C19" stroke-width="0.853982" stroke-linejoin="round"/>
<path d="M19.7438 5.17071L19.7438 5.17071L19.744 5.17059C20.1927 4.89176 20.7546 4.69361 21.4307 4.57691C22.1084 4.45995 22.7734 4.37808 23.4258 4.33129C24.1685 4.28515 24.9234 4.28453 25.6905 4.32944C25.565 4.8786 25.3671 5.41665 25.0967 5.94363C24.9586 6.20111 24.7918 6.46413 24.5961 6.73267C24.1923 6.9813 23.8493 7.14084 23.4843 7.18758C23.1184 7.23445 22.7272 7.16831 22.227 6.95933L20.5231 6.24704C20.5231 6.24702 20.523 6.247 20.523 6.24698C19.9494 5.99992 19.4348 5.82431 18.8007 5.86295C19.0808 5.61394 19.3951 5.38318 19.7438 5.17071Z" fill="#FF8C19" stroke="#FF8C19" stroke-width="0.0533739"/>
<defs>
<linearGradient id="paint0_linear_432_1489" x1="16.8001" y1="15.2002" x2="16.8001" y2="28.8002" gradientUnits="userSpaceOnUse">
<stop stop-color="#FFEE9A"/>
<stop offset="1" stop-color="#FF8C19"/>
</linearGradient>
<linearGradient id="paint1_linear_432_1489" x1="18.0313" y1="20.7842" x2="18.1081" y2="24.1984" gradientUnits="userSpaceOnUse">
<stop stop-color="#FFEE9A"/>
<stop offset="1" stop-color="#FF8E4E"/>
</linearGradient>
<linearGradient id="paint2_linear_432_1489" x1="23.874" y1="18.876" x2="24.0664" y2="25.0614" gradientUnits="userSpaceOnUse">
<stop stop-color="#FFEE9A"/>
<stop offset="1" stop-color="#FF8E4E"/>
</linearGradient>
<linearGradient id="paint3_linear_432_1489" x1="23.874" y1="18.876" x2="24.0664" y2="25.0614" gradientUnits="userSpaceOnUse">
<stop stop-color="#FFEE9A"/>
<stop offset="1" stop-color="#FF8E4E"/>
</linearGradient>
<linearGradient id="paint4_linear_432_1489" x1="21.7539" y1="17.5996" x2="21.7924" y2="19.3067" gradientUnits="userSpaceOnUse">
<stop stop-color="#FFEE9A"/>
<stop offset="1" stop-color="#FF8E4E"/>
</linearGradient>
<linearGradient id="paint5_linear_432_1489" x1="21.3691" y1="20.7842" x2="21.4076" y2="22.4913" gradientUnits="userSpaceOnUse">
<stop stop-color="#FFEE9A"/>
<stop offset="1" stop-color="#FF8E4E"/>
</linearGradient>
<linearGradient id="paint6_linear_432_1489" x1="14.6928" y1="23.1699" x2="14.7504" y2="25.7306" gradientUnits="userSpaceOnUse">
<stop stop-color="#FFEE9A"/>
<stop offset="1" stop-color="#FF8E4E"/>
</linearGradient>
<linearGradient id="paint7_linear_432_1489" x1="11.3538" y1="24.5996" x2="11.3922" y2="26.3067" gradientUnits="userSpaceOnUse">
<stop stop-color="#FFEE9A"/>
<stop offset="1" stop-color="#FF8E4E"/>
</linearGradient>
<linearGradient id="paint8_linear_432_1489" x1="19.4617" y1="25.0762" x2="19.5001" y2="26.7833" gradientUnits="userSpaceOnUse">
<stop stop-color="#FFEE9A"/>
<stop offset="1" stop-color="#FF8E4E"/>
</linearGradient>
</defs>
</svg>
